<svg width="14" height="14" viewBox="0 0 14 14" fill="none" xmlns="http://www.w3.org/2000/svg">
<path d="M12.0166 1.69168C11.8904 1.61826 11.7345 1.61826 11.6083 1.69168C11.1195 1.96287 10.569 2.1035 10.01 2.1C9.19264 2.11807 8.40235 1.80701 7.81665 1.23668C7.14049 0.57482 6.22628 0.213172 5.28032 0.233352C4.5185 0.226762 3.77366 0.458445 3.15 0.896027V0.7C3.15 0.313414 2.83661 0 2.45 0C2.06339 0 1.75 0.313387 1.75 0.7V13.3C1.75 13.6866 2.06339 14 2.45 14C2.83659 14 3.15 13.6866 3.15 13.3V7.23332C3.22733 7.22608 3.30099 7.19696 3.36232 7.14932C3.91746 6.74051 4.59096 6.52422 5.28032 6.53332C6.09916 6.51451 6.89117 6.8256 7.47832 7.39665C8.1532 8.05755 9.0656 8.41914 10.01 8.39997C10.7338 8.40839 11.4437 8.20129 12.0493 7.80497C12.1789 7.71515 12.2544 7.56593 12.25 7.4083V2.1C12.2515 1.93178 12.1623 1.77579 12.0166 1.69168Z" fill="black"/>
</svg>
