<svg width="14" height="14" viewBox="0 0 14 14" fill="none" xmlns="http://www.w3.org/2000/svg">
<g clip-path="url(#clip0)">
<path d="M13.4763 3.43863L6.9964 9.91913L0.516494 3.43863C0.395607 3.32185 0.202934 3.32522 0.0861553 3.4461C-0.0277419 3.56405 -0.0277419 3.75102 0.0861553 3.86894L6.78153 10.5643C6.90036 10.6831 7.093 10.6831 7.21186 10.5643L13.9072 3.86894C14.0281 3.75216 14.0315 3.55952 13.9147 3.4386C13.7979 3.31771 13.6053 3.31438 13.4844 3.43113C13.4818 3.43358 13.4794 3.43606 13.4769 3.4386L13.4763 3.43863Z" fill="black" fill-opacity="0.25"/>
<path d="M6.99627 10.6543C6.9155 10.6544 6.83798 10.6225 6.7808 10.5654L0.0854336 3.87003C-0.0313453 3.74914 -0.0279786 3.55647 0.0929088 3.43969C0.210857 3.32579 0.397824 3.32579 0.515744 3.43969L6.99624 9.91959L13.4761 3.43909C13.5929 3.3182 13.7856 3.31486 13.9065 3.43161C14.0274 3.54839 14.0307 3.74104 13.914 3.86195C13.9115 3.86449 13.909 3.86697 13.9065 3.86943L7.21114 10.5648C7.15419 10.6219 7.0769 10.6541 6.99627 10.6543Z" fill="black" fill-opacity="0.25"/>
</g>
<defs>
<clipPath id="clip0">
<rect width="14" height="14" fill="white"/>
</clipPath>
</defs>
</svg>
