<svg width="22" height="22" viewBox="0 0 22 22" fill="none" xmlns="http://www.w3.org/2000/svg">
<path d="M11.0003 10.7594C13.4463 10.7594 15.4294 8.35089 15.4294 5.37976C15.4294 2.40856 14.7783 0 11.0003 0C7.22224 0 6.57104 2.40856 6.57104 5.37976C6.57104 8.35089 8.55412 10.7594 11.0003 10.7594Z" fill="black"/>
<path d="M2.63442 18.9737C2.63366 18.7925 2.63291 18.9227 2.63442 18.9737V18.9737Z" fill="black"/>
<path d="M19.3655 19.115C19.3679 19.0654 19.3663 18.7709 19.3655 19.115V19.115Z" fill="black"/>
<path d="M19.3562 18.7563C19.2742 13.5805 18.5982 12.1057 13.4255 11.1721C13.4255 11.1721 12.6974 12.1 11.0002 12.1C9.3031 12.1 8.57484 11.1721 8.57484 11.1721C3.45858 12.0955 2.7415 13.5484 2.64722 18.5881C2.63949 18.9997 2.6359 19.0213 2.63452 18.9735C2.63484 19.063 2.63521 19.2286 2.63521 19.5173C2.63521 19.5173 3.86671 21.9999 11.0002 21.9999C18.1337 21.9999 19.3653 19.5173 19.3653 19.5173C19.3653 19.3318 19.3654 19.2028 19.3656 19.1151C19.3642 19.1446 19.3614 19.0874 19.3562 18.7563Z" fill="black"/>
</svg>
