<svg width="22" height="22" viewBox="0 0 22 22" fill="none" xmlns="http://www.w3.org/2000/svg">
<g clip-path="url(#clip0)">
<path d="M11 2.80493C10.7844 2.96882 7.82802 5.16835 4.0365 5.92754C3.53666 14.6769 10.9953 19.2067 11 19.2041C11.0047 19.2067 18.4634 14.6769 17.9636 5.92731C14.1718 5.16835 11 2.80493 11 2.80493Z" fill="#5871EF"/>
<path d="M20.4287 4.51751C20.4136 4.25181 20.2207 4.02992 19.9596 3.97744C15.336 3.05195 11.3883 0.144827 11.3494 0.115804C11.1405 -0.0398355 10.8538 -0.0385837 10.6462 0.119513C10.4905 0.237923 6.78028 3.029 2.04036 3.97771C1.7792 4.02997 1.58643 4.25209 1.57113 4.51784C1.19133 11.1664 4.31074 15.9491 6.99462 18.7903C8.0018 19.8569 8.9469 20.6453 9.56245 21.1187C9.9156 21.3902 10.2008 21.5896 10.3777 21.709C10.7082 21.9325 10.8033 21.9965 10.9856 21.9998C10.9932 22.0001 11.0006 22.0001 11.0079 22.0001C11.1877 22.0001 11.2963 21.9275 11.5825 21.7357C11.7375 21.6317 11.9885 21.4585 12.3013 21.2218C12.8462 20.8105 13.6887 20.1258 14.6092 19.199C16.3385 17.4581 17.7153 15.5197 18.7006 13.4378C20.0256 10.6393 20.607 7.63813 20.4287 4.51751ZM15.3069 16.6617C13.5315 18.8881 11.6966 20.2444 11 20.718C10.3035 20.2444 8.46862 18.8884 6.69247 16.6607C3.91415 13.1759 2.57831 9.26458 2.7186 5.02862C6.72052 4.12482 9.95769 2.03424 11.003 1.30343C12.0625 2.03317 15.3554 4.13748 19.2812 5.02829C19.4216 9.26481 18.0858 13.1767 15.3069 16.6617Z" fill="#5871EF"/>
</g>
<defs>
<clipPath id="clip0">
<rect width="22" height="22" fill="white"/>
</clipPath>
</defs>
</svg>
