<svg width="22" height="22" viewBox="0 0 22 22" fill="none" xmlns="http://www.w3.org/2000/svg">
<g clip-path="url(#clip0)">
<path d="M15.1939 7.59382C15.1939 9.97304 13.2652 11.9017 10.8863 11.9017C8.50726 11.9017 6.57847 9.97304 6.57847 7.59382C6.57847 5.21473 8.50704 3.28602 10.8861 3.28602C13.2651 3.28607 15.1939 5.21473 15.1939 7.59382ZM19.5608 20.2704C19.4684 20.3658 19.3223 20.3856 19.2078 20.3188L16.0649 18.4845C16.0325 18.8407 15.9856 19.3626 15.9372 19.8841C15.8943 20.348 15.8507 20.8117 15.817 21.1598C15.7997 21.3346 15.7851 21.4805 15.7739 21.5825C15.7539 21.7658 15.7291 21.9941 15.4722 22C15.4711 22 15.4696 22 15.4684 22C15.3923 22.0011 15.3189 21.9718 15.2641 21.9189C15.2188 21.875 15.1887 21.8116 15.1786 21.7476C15.0756 21.3926 13.4652 17.6907 12.1497 14.7002L11.893 14.8932C11.8015 14.9615 11.7016 15.0202 11.5969 15.0659C11.1311 15.2695 10.5813 15.2159 10.1632 14.9265L9.70744 14.6111C8.44099 17.579 6.9361 21.1449 6.83923 21.494C6.82986 21.5576 6.80062 21.6213 6.75527 21.6656C6.70112 21.7193 6.62772 21.7495 6.55203 21.7495C6.55072 21.7495 6.54927 21.7495 6.54813 21.7493C6.29097 21.7456 6.26404 21.5181 6.24198 21.3352C6.22964 21.2334 6.21371 21.0874 6.19466 20.9126C6.15684 20.5652 6.1083 20.1018 6.06067 19.6386C6.00674 19.1174 5.95369 18.5964 5.91762 18.2405L2.79499 20.108C2.68075 20.1763 2.5345 20.1579 2.4413 20.0635C2.34767 19.9688 2.33043 19.8227 2.39968 19.7092L6.23161 13.4227C5.69937 13.2677 5.29245 12.8258 5.19107 12.2685L4.82363 10.246L3.58852 8.60249C3.20515 8.09275 3.19184 7.39767 3.55508 6.87296L4.72536 5.1826L5.01374 3.14717C5.08549 2.64365 5.41926 2.2039 5.88549 2.00057C5.99033 1.95448 6.10059 1.92103 6.21322 1.90042L8.236 1.53276L9.87939 0.297912C9.97114 0.228881 10.0707 0.170838 10.1752 0.125226C10.6483 -0.0818669 11.1842 -0.0297764 11.6089 0.26425L13.2988 1.43423L15.3343 1.72309C15.9662 1.81265 16.4669 2.29482 16.5812 2.92253L16.9487 4.94513L18.1838 6.5883C18.567 7.09813 18.5801 7.79325 18.2173 8.31814L17.047 10.0084L16.7586 12.0437C16.6869 12.5475 16.3533 12.9868 15.8869 13.1907C15.7823 13.2367 15.6718 13.27 15.5595 13.2905L15.4718 13.3064L19.5989 19.9155C19.6693 20.0283 19.6536 20.1749 19.5608 20.2704ZM15.8451 7.59382C15.8451 4.85517 13.6246 2.63485 10.886 2.63485C8.14727 2.63485 5.92695 4.85513 5.92695 7.59382C5.92695 10.3326 8.14727 12.553 10.886 12.553C13.6246 12.553 15.8451 10.3326 15.8451 7.59382Z" fill="#FF557E"/>
</g>
<defs>
<clipPath id="clip0">
<rect width="22" height="22" fill="white"/>
</clipPath>
</defs>
</svg>
